<svg width="19" height="14" viewBox="0 0 19 14" fill="none" xmlns="http://www.w3.org/2000/svg">
<path d="M9.34163 7L0.00830078 2.27865V1.16667C0.00830078 0.838542 0.123752 0.562066 0.354655 0.33724C0.585558 0.112413 0.858995 0 1.17497 0H17.5083C17.8243 0 18.0977 0.112413 18.3286 0.33724C18.5595 0.562066 18.675 0.838542 18.675 1.16667V2.27865L9.34163 7ZM8.7583 8.16667H9.92497L18.675 3.6276V12.8333C18.675 13.1493 18.5595 13.4227 18.3286 13.6536C18.0977 13.8845 17.8243 14 17.5083 14H1.17497C0.858995 14 0.585558 13.8845 0.354655 13.6536C0.123752 13.4227 0.00830078 13.1493 0.00830078 12.8333V3.6276L8.7583 8.16667Z" fill="black" fill-opacity="0.22"/>
</svg>
