<svg width="32" height="32" viewBox="0 0 32 32" fill="none" xmlns="http://www.w3.org/2000/svg">
<path d="M27.9176 11.0684C27.9041 10.059 27.7152 9.05959 27.3591 8.11494C27.0504 7.31814 26.5788 6.5945 25.9746 5.99026C25.3704 5.38602 24.6467 4.91447 23.8499 4.60573C22.9174 4.25568 21.9323 4.06641 20.9365 4.04596C19.6543 3.98865 19.2478 3.97266 15.9932 3.97266C12.7385 3.97266 12.3214 3.97266 11.0486 4.04596C10.0532 4.06656 9.0685 4.25583 8.13643 4.60573C7.3395 4.91425 6.61575 5.38573 6.01148 5.99C5.40722 6.59427 4.93574 7.31802 4.62721 8.11494C4.27647 9.04673 4.0876 10.0316 4.06878 11.0271C4.01147 12.3105 3.99414 12.717 3.99414 15.9717C3.99414 19.2263 3.99414 19.6422 4.06878 20.9163C4.08877 21.9132 4.27669 22.8968 4.62721 23.8311C4.93625 24.6278 5.40808 25.3512 6.01255 25.9553C6.61702 26.5593 7.34084 27.0306 8.13776 27.339C9.06728 27.7031 10.0521 27.9059 11.0499 27.9387C12.3334 27.996 12.7399 28.0134 15.9945 28.0134C19.2492 28.0134 19.6663 28.0134 20.9391 27.9387C21.9349 27.9191 22.9201 27.7303 23.8526 27.3803C24.6492 27.0712 25.3726 26.5995 25.9768 25.9953C26.581 25.3911 27.0527 24.6677 27.3618 23.8711C27.7123 22.9381 27.9002 21.9545 27.9202 20.9563C27.9775 19.6742 27.9949 19.2677 27.9949 16.0117C27.9922 12.757 27.9922 12.3439 27.9176 11.0684ZM15.9852 22.1265C12.5813 22.1265 9.82373 19.3689 9.82373 15.965C9.82373 12.5611 12.5813 9.80358 15.9852 9.80358C17.6193 9.80358 19.1865 10.4527 20.342 11.6082C21.4975 12.7637 22.1466 14.3309 22.1466 15.965C22.1466 17.5991 21.4975 19.1663 20.342 20.3218C19.1865 21.4773 17.6193 22.1265 15.9852 22.1265ZM22.3919 11.0124C21.5962 11.0124 20.9551 10.37 20.9551 9.57567C20.9551 9.38708 20.9923 9.20034 21.0644 9.02611C21.1366 8.85188 21.2424 8.69357 21.3757 8.56021C21.5091 8.42686 21.6674 8.32108 21.8416 8.24891C22.0159 8.17674 22.2026 8.1396 22.3912 8.1396C22.5798 8.1396 22.7665 8.17674 22.9408 8.24891C23.115 8.32108 23.2733 8.42686 23.4066 8.56021C23.54 8.69357 23.6458 8.85188 23.7179 9.02611C23.7901 9.20034 23.8273 9.38708 23.8273 9.57567C23.8273 10.37 23.1849 11.0124 22.3919 11.0124Z" fill="white"/>
<path d="M15.9853 19.9676C18.1957 19.9676 19.9876 18.1757 19.9876 15.9652C19.9876 13.7548 18.1957 11.9629 15.9853 11.9629C13.7748 11.9629 11.9829 13.7548 11.9829 15.9652C11.9829 18.1757 13.7748 19.9676 15.9853 19.9676Z" fill="white"/>
</svg>
